PathFileType	4	(X/Y/Z)	Kaydara	
DataRate	CameraRate	NumFrames	NumMarkers	Units	OrigDataRate	OrigDataStartFrame	OrigNumFrames	
60.00	60.00	4	74	mm	60.00	263	201	
Frame#	Time	N_lasi			N_rasi			N_rpsi			N_lpsi			N_fneck			N_bneck			N_fhead			N_rhead			N_lhead			N_rshld			N_relbtop			N_relbext			N_relblow			N_rwrext			N_rwrtop			N_rwrlow			N_lshld			N_lelbext			N_lelblow			N_lelbtop			N_lwrext			N_lwrtop			N_lwrlow			N_rtopleg			N_ltopleg			N_rkneefr			N_rkneebk			N_rkneeis			N_lkneefr			N_lknssbk			N_lkneeis			N_rankfr			N_rankis			N_rankbk			N_lankfr			N_lankbk			N_lankis			D_lasi			D_rasi			D_rpsi			D_lpsi			D_fneck			D_bneck			D_fhead			D_rhead			D_lhead			D_rshld			D_relbtop			D_relbext			D_relblow			D_rwrext			D_rwrtop			D_rwrlow			D_lshld			D_lelbext			D_lelblow			D_lelbtop			D_lwrext			D_lwrtop			D_lwrlow			D_rtopleg			D_ltopleg			D_rkneefr			D_rkneebk			D_rkneeis			D_lkneefr			D_lknssbk			D_lkneeis			D_rankfr			D_rankis			D_rankbk			D_lankfr			D_lankbk			D_lankis			
		X1	Y1	Z1	X2	Y2	Z2	X3	Y3	Z3	X4	Y4	Z4	X5	Y5	Z5	X6	Y6	Z6	X7	Y7	Z7	X8	Y8	Z8	X9	Y9	Z9	X10	Y10	Z10	X11	Y11	Z11	X12	Y12	Z12	X13	Y13	Z13	X14	Y14	Z14	X15	Y15	Z15	X16	Y16	Z16	X17	Y17	Z17	X18	Y18	Z18	X19	Y19	Z19	X20	Y20	Z20	X21	Y21	Z21	X22	Y22	Z22	X23	Y23	Z23	X24	Y24	Z24	X25	Y25	Z25	X26	Y26	Z26	X27	Y27	Z27	X28	Y28	Z28	X29	Y29	Z29	X30	Y30	Z30	X31	Y31	Z31	X32	Y32	Z32	X33	Y33	Z33	X34	Y34	Z34	X35	Y35	Z35	X36	Y36	Z36	X37	Y37	Z37	X38	Y38	Z38	X39	Y39	Z39	X40	Y40	Z40	X41	Y41	Z41	X42	Y42	Z42	X43	Y43	Z43	X44	Y44	Z44	X45	Y45	Z45	X46	Y46	Z46	X47	Y47	Z47	X48	Y48	Z48	X49	Y49	Z49	X50	Y50	Z50	X51	Y51	Z51	X52	Y52	Z52	X53	Y53	Z53	X54	Y54	Z54	X55	Y55	Z55	X56	Y56	Z56	X57	Y57	Z57	X58	Y58	Z58	X59	Y59	Z59	X60	Y60	Z60	X61	Y61	Z61	X62	Y62	Z62	X63	Y63	Z63	X64	Y64	Z64	X65	Y65	Z65	X66	Y66	Z66	X67	Y67	Z67	X68	Y68	Z68	X69	Y69	Z69	X70	Y70	Z70	X71	Y71	Z71	X72	Y72	Z72	X73	Y73	Z73	X74	Y74	Z74	

76	4.367	-1187.53395	1102.68166	166.39263	-1420.32928	1118.60878	72.56128	-1352.59491	1196.29684	-190.67287	-1028.24112	1186.25450	-68.24398	-1294.87549	1548.77518	-94.78578	-1246.79260	1647.61703	4.05150	-1219.08287	1672.44247	257.52975	-1303.73367	1743.95050	86.89987	-1150.14481	1721.75323	110.32200	-1486.78772	1501.62933	-46.30957	-1593.45627	1204.79149	-138.54277	-1659.95728	1167.71317	-127.72596	-1582.22229	1211.12511	-50.93919	-1626.68304	913.74710	-11.28887	-1609.73038	927.96349	31.53158	-1561.71783	929.61746	27.76753	-990.04257	1500.59479	17.67357	-989.94209	1164.08485	-48.01898	-912.35428	1175.34706	23.35160	-906.38100	1185.95139	-63.42334	-881.16211	884.99565	-24.53349	-898.59978	869.63654	17.02410	-947.95204	875.55336	-1.69339	-1458.89557	975.79178	-99.30367	-994.45465	1026.56906	6.80086	-1371.92337	513.35316	-82.01536	-1325.67902	540.23083	-213.30420	-1240.26894	511.84971	-92.82627	-1182.43118	553.09937	241.15330	-1094.76768	572.28188	135.34947	-1224.33861	552.01954	94.37877	-1358.44406	131.01459	-221.11034	-1291.09024	132.42403	-177.51949	-1268.07106	124.23725	-260.60383	-1147.97768	206.92585	113.36229	-1101.08498	221.96888	46.22998	-1192.37755	219.35200	51.29093	349.42734	1038.65196	460.71068	632.65686	1084.79233	492.68822	546.74744	1168.85803	693.52798	335.11272	1133.88977	656.56593	431.40808	1545.75806	459.20143	426.65825	1625.47455	574.84550	381.06766	1710.70099	340.65262	493.63293	1757.74338	477.45964	342.85168	1739.33701	512.09969	643.49106	1523.93524	562.43507	715.30563	1218.56369	698.63174	662.08382	1194.33975	649.30641	759.84062	1229.48410	623.05153	807.14493	980.78278	670.42732	818.26782	980.58479	612.96009	763.81012	977.48787	606.55708	213.76980	1488.12912	551.74866	245.54550	1163.62610	501.68594	157.75556	1200.50270	476.68251	171.79773	1144.69276	535.64117	203.71750	993.60855	327.22042	213.66371	1027.06421	299.08558	262.03033	1038.92784	310.43478	688.74374	1041.22169	579.48811	291.66265	1000.06332	594.59816	714.33777	549.23553	327.87312	745.84167	573.02315	430.73250	628.09608	535.37773	428.25432	473.47687	468.46096	523.01838	431.65829	490.85785	629.13292	556.52687	478.75565	581.03809	753.00507	222.01433	484.13193	690.61127	226.58171	512.74651	757.18231	244.34202	561.88812	539.90883	144.37346	605.78011	516.99322	136.88189	678.44223	593.27587	156.92900	642.84897 
77	4.383	-1189.45984	1100.54749	177.12509	-1424.29749	1116.52351	86.22178	-1359.95728	1195.33722	-177.60660	-1033.49602	1184.29131	-60.18948	-1298.94821	1547.18292	-82.17467	-1250.86517	1646.02478	16.66261	-1219.30939	1670.39566	269.65996	-1306.52618	1742.13837	100.68411	-1152.69524	1720.16953	121.60971	-1491.64749	1499.94598	-29.21362	-1600.67612	1202.71690	-116.72616	-1666.61362	1166.25565	-106.01831	-1588.31497	1210.28442	-29.34051	-1632.81052	913.72215	15.24699	-1616.04446	928.63762	57.87901	-1568.02399	930.46379	54.17109	-993.80409	1498.75870	25.54470	-994.95415	1162.36893	-40.32771	-915.42862	1173.89305	28.63406	-911.73859	1184.57428	-58.27297	-885.12878	883.79135	-20.85390	-901.79443	868.29704	21.17930	-951.83151	874.01169	4.21299	-1463.52264	974.77600	-84.46686	-999.55574	1024.40598	12.74349	-1373.72772	512.20566	-78.01141	-1326.85669	541.75613	-208.63703	-1241.58684	512.33784	-88.26564	-1187.03415	554.15707	251.82905	-1101.28304	570.03132	144.44426	-1233.05000	548.47862	105.36496	-1358.85468	132.02633	-220.40806	-1291.63727	133.44161	-176.61983	-1268.11172	125.69228	-259.69934	-1160.86716	202.28424	152.55086	-1117.05635	210.86191	81.88921	-1208.43544	210.45166	92.19754	347.65781	1037.88383	450.71808	631.76159	1083.77609	474.88041	551.90853	1168.86101	677.63939	338.96042	1133.65952	646.84616	430.55401	1544.65240	443.79650	427.92114	1624.59381	559.79969	377.90867	1709.78119	326.45821	492.56824	1757.03186	461.53053	342.66483	1737.88361	498.61553	644.93599	1522.73758	542.31934	719.50371	1218.92403	679.02527	664.63867	1193.52837	631.75114	761.98593	1228.14270	602.01904	811.16753	980.79117	654.82430	820.45425	978.89389	597.32868	765.97816	975.65033	592.39315	214.96401	1487.57446	541.94885	245.24006	1163.69637	490.38834	157.31326	1200.96588	466.59168	171.34201	1143.95821	524.36806	203.72862	1000.05867	310.49080	213.26233	1034.56474	283.51921	261.67196	1046.57455	295.01060	690.32532	1040.52277	560.04227	294.46529	999.76295	586.16974	703.30956	549.41055	304.90307	739.96185	569.43241	406.40148	621.71745	532.68402	408.53168	473.27122	467.27409	517.83764	432.07962	490.83992	623.96751	556.41350	478.41026	573.94257	750.57625	215.07431	436.15963	689.65584	216.81644	468.73531	758.36113	232.01248	514.39327	539.99130	144.04280	604.73015	517.35672	137.54716	677.43332	593.49739	157.19016	641.49139 
78	4.400	-1190.70473	1098.30719	188.39657	-1426.41464	1114.05373	99.49605	-1366.91727	1193.71643	-164.89477	-1038.55049	1182.08076	-51.38865	-1302.51892	1545.34683	-69.23109	-1254.43604	1644.18869	29.60619	-1219.00475	1668.41614	282.01269	-1309.03473	1740.08560	114.47465	-1154.87236	1718.42987	133.04107	-1495.86426	1498.09814	-11.95035	-1606.95023	1200.45677	-94.70031	-1672.23114	1164.58733	-84.12694	-1593.27621	1209.20830	-7.58358	-1638.35297	913.51273	41.35237	-1621.73874	929.06631	83.80363	-1573.71719	930.75645	80.17468	-997.34818	1496.70624	33.78086	-999.90295	1160.27573	-30.83300	-918.72734	1171.88637	34.84669	-916.86371	1182.78099	-52.14036	-888.60504	882.40715	-15.67081	-904.48769	866.70731	26.40465	-955.14351	872.04849	10.10621	-1468.95889	973.30795	-71.43920	-1004.30206	1022.22969	20.76241	-1375.34882	510.98537	-73.32295	-1328.56125	543.21411	-203.00573	-1243.06503	512.79175	-82.75764	-1190.61264	554.46007	261.54465	-1107.26059	566.26740	152.28388	-1241.91376	544.40102	116.50895	-1359.18747	133.01878	-219.66938	-1292.23618	134.62344	-175.51056	-1268.35365	127.32298	-258.52598	-1172.17857	198.70222	191.02249	-1132.55585	200.78468	117.74377	-1223.07335	202.99505	132.75959	345.94490	1036.74599	440.40253	630.89828	1082.35497	457.07218	556.73252	1168.48366	661.55777	343.11398	1133.27370	636.54732	429.72118	1543.41614	428.75072	429.45732	1623.38562	544.37622	374.66785	1708.22098	311.99829	491.52306	1755.99045	445.08247	342.23637	1736.20026	484.71535	645.91057	1521.14685	522.06909	723.44856	1218.66150	659.29810	667.33322	1192.42920	613.52417	763.88527	1226.50505	580.93472	815.17616	980.66040	638.19088	822.44476	976.96526	580.37853	767.81425	973.74435	577.12070	216.11851	1486.81046	531.80214	244.55523	1163.48877	479.67152	156.93493	1201.17638	456.73027	170.92718	1143.00117	513.51604	203.21413	1005.60356	294.90568	212.46376	1040.94772	269.07276	260.88659	1052.75490	280.91164	691.75430	1039.29199	540.68073	296.59334	999.50890	577.44785	692.10327	548.71117	283.76575	733.72353	565.13153	383.89816	615.41992	529.25560	390.08831	473.00560	465.84045	512.09599	432.16866	490.71495	618.09906	556.71730	477.83134	568.58662	745.78880	208.69329	388.09834	686.43837	207.76525	423.68198	757.38716	219.42135	467.10220	539.55013	143.82714	603.15357	517.45998	138.39384	676.48476	593.48076	157.40199	640.00130 
79	4.417	-1191.36841	1095.82840	200.31475	-1429.01154	1112.23961	114.23109	-1373.10547	1192.05727	-151.49405	-1043.40256	1179.81224	-41.95468	-1305.53879	1543.29453	-56.04377	-1257.45590	1642.13654	42.79351	-1218.07480	1666.42685	294.44931	-1310.68268	1737.79694	128.51768	-1156.37039	1716.32278	144.41488	-1499.40384	1496.10779	5.58485	-1612.23541	1198.12332	-72.59924	-1676.94138	1162.73941	-62.17542	-1597.41135	1207.84584	14.21838	-1643.34503	913.03040	67.05547	-1626.62094	929.05640	109.18862	-1578.55743	930.40604	105.49528	-1000.46738	1494.45389	42.56065	-1004.51691	1157.98500	-21.61668	-922.34245	1169.64867	42.05247	-921.86722	1180.59998	-44.97453	-891.57425	880.50224	-9.50364	-907.25471	864.80606	32.74506	-958.02086	869.87198	16.64295	-1473.19824	972.46239	-56.36439	-1008.31329	1019.70749	29.35216	-1377.22672	509.93877	-67.45213	-1330.53696	544.47376	-196.43253	-1244.92325	513.22216	-76.75067	-1193.26050	554.08356	270.25837	-1112.35428	561.32637	159.17990	-1249.53857	541.54285	128.00380	-1359.66415	134.02492	-218.62022	-1292.78900	135.61574	-174.31799	-1268.72360	129.17943	-257.19120	-1182.82822	196.93897	227.49325	-1147.17163	192.13419	152.90161	-1236.71204	197.89993	171.98963	345.18860	1035.80994	429.60052	629.94629	1080.50247	439.52919	561.17371	1167.63107	645.09926	346.87840	1132.72888	625.65285	428.73398	1541.76392	413.42175	430.56942	1622.02591	528.83842	371.57108	1706.16547	297.18826	490.50411	1754.58313	428.16277	341.94290	1734.31259	470.33787	646.85104	1519.33823	501.21918	727.33566	1217.76749	639.10332	669.84474	1191.21201	594.76158	765.71587	1224.64859	559.38770	819.02786	980.08873	619.88625	824.12506	974.88983	562.01775	769.42703	971.62674	560.84358	217.20921	1485.85602	521.29921	244.28030	1162.74963	468.65887	156.52249	1200.81970	447.18464	170.71074	1141.96365	503.05428	201.71316	1009.95346	280.51498	211.19028	1046.06407	255.83113	259.69105	1057.37450	267.78873	692.89467	1037.39395	521.58997	298.62778	999.21585	568.07198	681.35452	547.15332	264.21448	727.14371	559.72595	363.31245	608.94306	524.86717	372.62032	471.96491	464.25117	506.05904	431.98914	490.81783	612.16084	556.31645	477.09412	562.37892	738.88054	203.10377	340.51231	681.07780	199.33231	378.41881	753.61877	207.40030	419.50626	539.04572	143.41846	602.73888	517.46155	139.09245	675.60913	593.46123	157.80214	639.25304 
